<svg xmlns="http://www.w3.org/2000/svg" viewBox="0 0 512 512" role="img" aria-label="clima-sp">
  <defs>
    <linearGradient id="ceu" x1="0" y1="0" x2="0" y2="1">
      <stop offset="0" stop-color="#1c5d99"/>
      <stop offset="1" stop-color="#123c63"/>
    </linearGradient>
    <linearGradient id="sol" x1="0" y1="0" x2="1" y2="1">
      <stop offset="0" stop-color="#ffcf6b"/>
      <stop offset="1" stop-color="#e07b39"/>
    </linearGradient>
  </defs>
  <rect width="512" height="512" rx="108" fill="url(#ceu)"/>
  <!-- sol -->
  <circle cx="200" cy="196" r="74" fill="url(#sol)"/>
  <g stroke="#ffcf6b" stroke-width="14" stroke-linecap="round">
    <line x1="200" y1="74" x2="200" y2="104"/>
    <line x1="106" y1="196" x2="76" y2="196"/>
    <line x1="124" y1="120" x2="103" y2="99"/>
    <line x1="276" y1="120" x2="297" y2="99"/>
    <line x1="124" y1="272" x2="103" y2="293"/>
  </g>
  <!-- nuvem -->
  <g fill="#ffffff">
    <circle cx="248" cy="296" r="58"/>
    <circle cx="312" cy="272" r="74"/>
    <circle cx="372" cy="312" r="54"/>
    <rect x="248" y="300" width="128" height="64" rx="32"/>
  </g>
  <!-- gotas -->
  <g fill="#7ec8ff">
    <path d="M236 388 q-16 24 0 38 a19 19 0 0 0 0-38 z"/>
    <path d="M300 396 q-16 24 0 38 a19 19 0 0 0 0-38 z"/>
    <path d="M364 388 q-16 24 0 38 a19 19 0 0 0 0-38 z"/>
  </g>
</svg>
